<svg id="Layer_1" data-name="Layer 1" xmlns="http://www.w3.org/2000/svg" viewBox="0 0 360.14 261.19"><defs><style>.cls-1,.cls-2{fill:#010101;}.cls-2{stroke:#010101;stroke-miterlimit:10;stroke-width:0.25px;}</style></defs><path class="cls-1" d="M281,87.25,216,45.87H60.74L75.92,71.8h29.41l0,0H217.5l.05,0,6.88,4.43L257.7,97.67l67,113.05-10.27,25.91h-142l15.17,25.9H342.86L360,221.15Z" transform="translate(0.14 -1.34)"/><path class="cls-2" d="M97.17,192.25H249.91l5.21-13.12-28.55-49.45L206.4,116.89H79.5L36.13,89,0,29.39,11.13,1.47H167l15,25.91h-141L35.15,40.16,58.07,76.85,78.77,90H205.33l43.51,27.58,42,72.67-11.47,27.93H112.13Z" transform="translate(0.14 -1.34)"/><polygon id="dot" class="cls-1" points="122.74 235.24 151.31 235.24 166.44 261.19 137.87 261.19 122.74 235.24"/></svg>